<svg xmlns="http://www.w3.org/2000/svg" viewBox="200 50 250 500"><path fill="#F7FAFC" d="M308.83,590.47l-36.02-36.24-211.32-.04-.02-211.73-33.11-33.97,33.1-32.83.06-215.74,213.74-.04,33.44-32.97,32.72,32.95,214.01.06.09,215.62,32.85,32.76-32.98,33.11.07,212.74-210.4.12-36.23,36.22ZM309.06,554.38l75.59-76.84,139.83-141.31,27.71-28.16-90.65-90.72-153.22-153.14-121.52,120.54-94.93,95.46-28.12,28.44,104.75,105.5,74.08,73.66,66.47,66.57ZM217.26,118.44l32.14-32.02-162.51-.03.04,162.48L217.26,118.44ZM529.89,86.36l-162.65.06,162.61,162.48.04-162.53ZM212.59,494.48l-80.55-81.87-45.02-45.72-.11,162.06,159.47-.05-33.79-34.42ZM368.35,528.94h161.53s-.05-162.04-.05-162.04l-55.1,54.99-106.38,107.05Z"/><path fill="#F7FAFC" d="M308.82,480.07l-79.77-47.73-67.12-40.07-.02-170.73,146.72-84.25,64.83,36.85,82.92,47.15.02,171.48-147.59,87.3ZM326.59,231.54c16.08,4.36,29.73,13.38,40.47,26.16l49.59-28.49-107.78-62.81-107.17,62.43,49.75,28.55c18.26-22.66,46.99-32.84,75.15-25.84ZM295.82,386.46c-47.59-10.21-74.96-60.83-57.18-106.39l-50.9-29.61-.08,128.4,108.06,62.32.1-54.7ZM321.95,386.6l.28,54.64,107.9-62.29-.05-128.24-49.74,29.27c13.71,35.59.59,75.43-31.39,95.73-8.32,5.71-17.18,8.86-26.99,10.88Z"/></svg>
